<?xml version="1.0" standalone="no"?>
<!DOCTYPE svg PUBLIC "-//W3C//DTD SVG 20010904//EN"
 "http://www.w3.org/TR/2001/REC-SVG-20010904/DTD/svg10.dtd">
<svg version="1.0" xmlns="http://www.w3.org/2000/svg"
 width="261.000000pt" height="261.000000pt" viewBox="0 0 261.000000 261.000000"
 preserveAspectRatio="xMidYMid meet">
<metadata>
Created by potrace 1.14, written by Peter Selinger 2001-2017
</metadata>
<g transform="translate(0.000000,261.000000) scale(0.100000,-0.100000)"
fill="#000000" stroke="none">
<path d="M20 1310 l0 -1280 1280 0 1280 0 0 1280 0 1280 -1280 0 -1280 0 0
-1280z m1742 650 l28 0 0 -139 c0 -76 -3 -158 -6 -183 l-6 -44 -97 4 c-53 2
-100 7 -104 11 -4 4 -5 88 -1 186 l7 178 75 -7 c41 -3 88 -6 104 -6z m232 -6
l46 -7 0 -146 c0 -80 -3 -164 -7 -185 l-6 -39 -95 6 c-52 4 -95 8 -96 9 -1 2
0 85 2 186 l3 182 53 0 c29 0 74 -3 100 -6z m-610 -41 l69 -6 -5 -175 -6 -174
47 6 c25 3 129 -1 231 -9 101 -8 187 -15 191 -15 6 0 32 -111 26 -116 -1 -1
-112 -7 -246 -13 -135 -6 -247 -13 -249 -16 -3 -2 -1 -210 5 -462 5 -252 8
-460 5 -463 -2 -3 -75 -5 -162 -5 -87 0 -160 2 -163 5 -6 7 -25 405 -34 693
l-6 227 -255 0 -254 0 4 89 c1 49 6 92 10 96 4 4 69 2 145 -4 76 -5 186 -13
246 -17 l107 -6 0 186 0 186 113 0 c61 0 143 -3 181 -7z m520 -743 c44 -188
113 -596 103 -606 -6 -6 -140 -23 -238 -30 l-96 -7 -13 104 c-10 92 -57 443
-76 570 l-6 46 118 15 c66 9 133 16 151 17 l31 1 26 -110z m-1026 64 l52 -5 0
-58 c0 -51 -4 -129 -26 -540 l-6 -114 -159 7 c-87 4 -166 9 -175 13 -13 5 -14
18 -9 82 19 225 56 543 72 609 5 23 7 23 102 17 53 -3 120 -8 149 -11z"/>
</g>
</svg>
