<?xml version="1.0" standalone="no"?>
<!DOCTYPE svg PUBLIC "-//W3C//DTD SVG 20010904//EN"
 "http://www.w3.org/TR/2001/REC-SVG-20010904/DTD/svg10.dtd">
<svg version="1.0" xmlns="http://www.w3.org/2000/svg"
 width="178.000000pt" height="184.000000pt" viewBox="0 0 178.000000 184.000000"
 preserveAspectRatio="xMidYMid meet">

<g transform="translate(0.000000,184.000000) scale(0.100000,-0.100000)"
fill="#364f6b" stroke="none">
<path d="M520 1485 l0 -185 370 0 370 0 0 185 0 185 -70 0 -70 0 0 -75 0 -75
-80 0 -80 0 0 75 0 75 -70 0 -70 0 0 -75 0 -75 -80 0 -80 0 0 75 0 75 -70 0
-70 0 0 -185z"/>
<path d="M520 1145 l0 -75 111 0 111 0 -7 -32 c-24 -120 -58 -189 -138 -276
-58 -63 -77 -92 -77 -119 l0 -23 370 0 c327 0 370 2 370 15 0 28 -30 75 -85
135 -64 69 -100 136 -120 222 -8 35 -15 66 -15 71 0 4 50 7 110 7 l110 0 0 75
0 75 -370 0 -370 0 0 -75z"/>
<path d="M370 470 l0 -70 50 0 c28 0 50 -2 50 -4 0 -3 -38 -68 -85 -146 -47
-78 -85 -143 -85 -146 0 -2 266 -4 590 -4 325 0 590 2 590 4 0 3 -38 68 -85
146 -47 78 -85 143 -85 146 0 2 23 4 50 4 l50 0 0 70 0 70 -520 0 -520 0 0
-70z"/>
</g>
</svg>
